<mxfile host="Electron" agent="Mozilla/5.0 (Windows NT 10.0; Win64; x64) AppleWebKit/537.36 (KHTML, like Gecko) draw.io/27.0.9 Chrome/134.0.6998.205 Electron/35.4.0 Safari/537.36" version="27.0.9">
  <diagram name="Page-1" id="pYL3R1VjfmIS69CKdgdX">
    <mxGraphModel dx="2252" dy="580" grid="1" gridSize="10" guides="1" tooltips="1" connect="1" arrows="1" fold="1" page="1" pageScale="1" pageWidth="827" pageHeight="1169" math="0" shadow="0">
      <root>
        <mxCell id="0" />
        <mxCell id="1" parent="0" />
        <mxCell id="uWoTVwZIR8hNObK4jhSC-3" value="" style="edgeStyle=orthogonalEdgeStyle;rounded=0;orthogonalLoop=1;jettySize=auto;html=1;" edge="1" parent="1" source="uWoTVwZIR8hNObK4jhSC-1" target="uWoTVwZIR8hNObK4jhSC-2">
          <mxGeometry relative="1" as="geometry" />
        </mxCell>
        <mxCell id="uWoTVwZIR8hNObK4jhSC-1" value="Cloud&amp;nbsp;" style="rounded=1;whiteSpace=wrap;html=1;fillColor=#dae8fc;strokeColor=#6c8ebf;" vertex="1" parent="1">
          <mxGeometry x="250" y="340" width="190" height="20" as="geometry" />
        </mxCell>
        <mxCell id="uWoTVwZIR8hNObK4jhSC-2" value="Devops" style="whiteSpace=wrap;html=1;fillColor=#dae8fc;strokeColor=#6c8ebf;rounded=1;" vertex="1" parent="1">
          <mxGeometry x="250" y="380" width="190" height="30" as="geometry" />
        </mxCell>
        <mxCell id="uWoTVwZIR8hNObK4jhSC-6" value="" style="edgeStyle=orthogonalEdgeStyle;rounded=0;orthogonalLoop=1;jettySize=auto;html=1;" edge="1" parent="1" source="uWoTVwZIR8hNObK4jhSC-4" target="uWoTVwZIR8hNObK4jhSC-5">
          <mxGeometry relative="1" as="geometry" />
        </mxCell>
        <mxCell id="uWoTVwZIR8hNObK4jhSC-4" value="2000-2010" style="rounded=1;whiteSpace=wrap;html=1;fillColor=#fff2cc;strokeColor=#d6b656;" vertex="1" parent="1">
          <mxGeometry x="50" y="460" width="120" height="30" as="geometry" />
        </mxCell>
        <mxCell id="uWoTVwZIR8hNObK4jhSC-10" value="" style="edgeStyle=orthogonalEdgeStyle;rounded=0;orthogonalLoop=1;jettySize=auto;html=1;" edge="1" parent="1" source="uWoTVwZIR8hNObK4jhSC-5" target="uWoTVwZIR8hNObK4jhSC-9">
          <mxGeometry relative="1" as="geometry" />
        </mxCell>
        <mxCell id="uWoTVwZIR8hNObK4jhSC-5" value="2012---2020" style="whiteSpace=wrap;html=1;fillColor=#fff2cc;strokeColor=#d6b656;rounded=1;" vertex="1" parent="1">
          <mxGeometry x="260" y="435" width="120" height="25" as="geometry" />
        </mxCell>
        <mxCell id="uWoTVwZIR8hNObK4jhSC-12" value="" style="edgeStyle=orthogonalEdgeStyle;rounded=0;orthogonalLoop=1;jettySize=auto;html=1;" edge="1" parent="1" source="uWoTVwZIR8hNObK4jhSC-9" target="uWoTVwZIR8hNObK4jhSC-11">
          <mxGeometry relative="1" as="geometry" />
        </mxCell>
        <mxCell id="uWoTVwZIR8hNObK4jhSC-14" value="" style="edgeStyle=orthogonalEdgeStyle;rounded=0;orthogonalLoop=1;jettySize=auto;html=1;" edge="1" parent="1" source="uWoTVwZIR8hNObK4jhSC-9" target="uWoTVwZIR8hNObK4jhSC-13">
          <mxGeometry relative="1" as="geometry" />
        </mxCell>
        <mxCell id="uWoTVwZIR8hNObK4jhSC-16" value="" style="edgeStyle=orthogonalEdgeStyle;rounded=0;orthogonalLoop=1;jettySize=auto;html=1;" edge="1" parent="1" target="uWoTVwZIR8hNObK4jhSC-15">
          <mxGeometry relative="1" as="geometry">
            <mxPoint x="540" y="460" as="sourcePoint" />
          </mxGeometry>
        </mxCell>
        <mxCell id="uWoTVwZIR8hNObK4jhSC-9" value="Digitligation" style="whiteSpace=wrap;html=1;fillColor=#d5e8d4;strokeColor=#82b366;rounded=1;" vertex="1" parent="1">
          <mxGeometry x="480" y="410" width="120" height="30" as="geometry" />
        </mxCell>
        <mxCell id="uWoTVwZIR8hNObK4jhSC-11" value="Transoprt" style="whiteSpace=wrap;html=1;fillColor=#d5e8d4;strokeColor=#82b366;rounded=1;" vertex="1" parent="1">
          <mxGeometry x="630" y="470" width="60" height="25" as="geometry" />
        </mxCell>
        <mxCell id="uWoTVwZIR8hNObK4jhSC-13" value="Health" style="whiteSpace=wrap;html=1;fillColor=#d5e8d4;strokeColor=#82b366;rounded=1;" vertex="1" parent="1">
          <mxGeometry x="540" y="470" width="80" height="25" as="geometry" />
        </mxCell>
        <mxCell id="uWoTVwZIR8hNObK4jhSC-15" value="Govt&amp;nbsp;" style="whiteSpace=wrap;html=1;fillColor=#d5e8d4;strokeColor=#82b366;rounded=1;" vertex="1" parent="1">
          <mxGeometry x="460" y="490" width="60" height="30" as="geometry" />
        </mxCell>
        <mxCell id="uWoTVwZIR8hNObK4jhSC-17" value="" style="edgeStyle=orthogonalEdgeStyle;rounded=0;orthogonalLoop=1;jettySize=auto;html=1;" edge="1" parent="1" source="uWoTVwZIR8hNObK4jhSC-18" target="uWoTVwZIR8hNObK4jhSC-19">
          <mxGeometry relative="1" as="geometry" />
        </mxCell>
        <mxCell id="uWoTVwZIR8hNObK4jhSC-18" value="Cloud&amp;nbsp;" style="rounded=1;whiteSpace=wrap;html=1;fillColor=#dae8fc;strokeColor=#6c8ebf;" vertex="1" parent="1">
          <mxGeometry x="230" y="515" width="190" height="20" as="geometry" />
        </mxCell>
        <mxCell id="uWoTVwZIR8hNObK4jhSC-22" value="" style="edgeStyle=orthogonalEdgeStyle;rounded=0;orthogonalLoop=1;jettySize=auto;html=1;" edge="1" parent="1" source="uWoTVwZIR8hNObK4jhSC-19" target="uWoTVwZIR8hNObK4jhSC-21">
          <mxGeometry relative="1" as="geometry" />
        </mxCell>
        <mxCell id="uWoTVwZIR8hNObK4jhSC-19" value="Devops" style="whiteSpace=wrap;html=1;fillColor=#dae8fc;strokeColor=#6c8ebf;rounded=1;" vertex="1" parent="1">
          <mxGeometry x="230" y="555" width="190" height="30" as="geometry" />
        </mxCell>
        <mxCell id="uWoTVwZIR8hNObK4jhSC-20" style="edgeStyle=orthogonalEdgeStyle;rounded=0;orthogonalLoop=1;jettySize=auto;html=1;entryX=0.564;entryY=1.093;entryDx=0;entryDy=0;entryPerimeter=0;" edge="1" parent="1" source="uWoTVwZIR8hNObK4jhSC-18" target="uWoTVwZIR8hNObK4jhSC-5">
          <mxGeometry relative="1" as="geometry" />
        </mxCell>
        <mxCell id="uWoTVwZIR8hNObK4jhSC-24" value="" style="edgeStyle=orthogonalEdgeStyle;rounded=0;orthogonalLoop=1;jettySize=auto;html=1;" edge="1" parent="1" source="uWoTVwZIR8hNObK4jhSC-21" target="uWoTVwZIR8hNObK4jhSC-23">
          <mxGeometry relative="1" as="geometry" />
        </mxCell>
        <mxCell id="uWoTVwZIR8hNObK4jhSC-21" value="Time:- 180 Days" style="whiteSpace=wrap;html=1;fillColor=#f8cecc;strokeColor=#b85450;rounded=1;" vertex="1" parent="1">
          <mxGeometry x="530" y="535" width="120" height="60" as="geometry" />
        </mxCell>
        <mxCell id="uWoTVwZIR8hNObK4jhSC-23" value="Till Job&amp;nbsp;" style="whiteSpace=wrap;html=1;fillColor=#d5e8d4;strokeColor=#82b366;rounded=1;" vertex="1" parent="1">
          <mxGeometry x="710" y="550" width="120" height="60" as="geometry" />
        </mxCell>
        <mxCell id="uWoTVwZIR8hNObK4jhSC-27" style="edgeStyle=orthogonalEdgeStyle;rounded=0;orthogonalLoop=1;jettySize=auto;html=1;" edge="1" parent="1" source="uWoTVwZIR8hNObK4jhSC-25" target="uWoTVwZIR8hNObK4jhSC-26">
          <mxGeometry relative="1" as="geometry" />
        </mxCell>
        <mxCell id="uWoTVwZIR8hNObK4jhSC-25" value="BASIC Requirement&amp;nbsp;" style="rounded=1;whiteSpace=wrap;html=1;fillColor=#fff2cc;strokeColor=#d6b656;" vertex="1" parent="1">
          <mxGeometry x="120" y="640" width="760" height="20" as="geometry" />
        </mxCell>
        <mxCell id="uWoTVwZIR8hNObK4jhSC-29" value="" style="edgeStyle=orthogonalEdgeStyle;rounded=0;orthogonalLoop=1;jettySize=auto;html=1;" edge="1" parent="1" source="uWoTVwZIR8hNObK4jhSC-26" target="uWoTVwZIR8hNObK4jhSC-28">
          <mxGeometry relative="1" as="geometry" />
        </mxCell>
        <mxCell id="uWoTVwZIR8hNObK4jhSC-26" value="" style="points=[[0.02,0.015,0],[0.5,0,0],[0.98,0.015,0],[1,0.38,0],[0.895,0.98,0],[0.5,1,0],[0.105,0.98,0],[0,0.38,0]];verticalLabelPosition=bottom;sketch=0;html=1;verticalAlign=top;aspect=fixed;align=center;pointerEvents=1;shape=mxgraph.cisco19.secure_endpoint_pc;fillColor=#005073;strokeColor=none;" vertex="1" parent="1">
          <mxGeometry x="282.5" y="695" width="75" height="60" as="geometry" />
        </mxCell>
        <mxCell id="uWoTVwZIR8hNObK4jhSC-31" value="" style="edgeStyle=orthogonalEdgeStyle;rounded=0;orthogonalLoop=1;jettySize=auto;html=1;" edge="1" parent="1" source="uWoTVwZIR8hNObK4jhSC-28" target="uWoTVwZIR8hNObK4jhSC-30">
          <mxGeometry relative="1" as="geometry" />
        </mxCell>
        <mxCell id="uWoTVwZIR8hNObK4jhSC-28" value="8 GB RAM&lt;div&gt;500 GB HDD&lt;/div&gt;&lt;div&gt;i5/ i7&lt;/div&gt;" style="whiteSpace=wrap;html=1;verticalAlign=top;fillColor=#005073;strokeColor=none;sketch=0;pointerEvents=1;" vertex="1" parent="1">
          <mxGeometry x="440" y="700" width="120" height="50" as="geometry" />
        </mxCell>
        <mxCell id="uWoTVwZIR8hNObK4jhSC-30" value="LAB&lt;div&gt;CLOUD&lt;/div&gt;&lt;div&gt;Free&amp;nbsp;&lt;/div&gt;" style="whiteSpace=wrap;html=1;verticalAlign=top;fillColor=#005073;strokeColor=none;sketch=0;pointerEvents=1;" vertex="1" parent="1">
          <mxGeometry x="610" y="695" width="120" height="60" as="geometry" />
        </mxCell>
        <mxCell id="uWoTVwZIR8hNObK4jhSC-33" style="edgeStyle=orthogonalEdgeStyle;rounded=0;orthogonalLoop=1;jettySize=auto;html=1;" edge="1" parent="1" source="uWoTVwZIR8hNObK4jhSC-32">
          <mxGeometry relative="1" as="geometry">
            <mxPoint x="330" y="760" as="targetPoint" />
          </mxGeometry>
        </mxCell>
        <mxCell id="uWoTVwZIR8hNObK4jhSC-32" value="&lt;div&gt;Putty:- https://www.chiark.greenend.org.uk/~sgtatham/putty/latest.html&lt;/div&gt;&lt;div&gt;WinSCP:- https://winscp.net/download/WinSCP-6.5-Setup.exe/download&lt;/div&gt;&lt;div&gt;Mobaxtreem:- https://mobaxterm.mobatek.net/download-home-edition.html&lt;/div&gt;&lt;div&gt;RHEL-9.2 --- https://users.cs.fiu.edu/~mrobi002/linux-iso/&lt;/div&gt;&lt;div&gt;GIT BASH :-- https://git-scm.com/downloads/win&lt;/div&gt;&lt;div&gt;VISUAL STUDIO CODE :- https://code.visualstudio.com/download&lt;/div&gt;&lt;div&gt;work station :-- https://drive.google.com/drive/folders/1RcwBwgZb9RbD1KInvyfsx1UZCtzjd3Bv&lt;/div&gt;" style="rounded=1;whiteSpace=wrap;html=1;fillColor=#e3c800;fontColor=#000000;strokeColor=#B09500;" vertex="1" parent="1">
          <mxGeometry x="200" y="790" width="575" height="270" as="geometry" />
        </mxCell>
        <mxCell id="uWoTVwZIR8hNObK4jhSC-36" value="" style="edgeStyle=orthogonalEdgeStyle;rounded=0;orthogonalLoop=1;jettySize=auto;html=1;" edge="1" parent="1" source="uWoTVwZIR8hNObK4jhSC-34" target="uWoTVwZIR8hNObK4jhSC-35">
          <mxGeometry relative="1" as="geometry" />
        </mxCell>
        <mxCell id="uWoTVwZIR8hNObK4jhSC-34" value="&lt;b&gt;&lt;font style=&quot;font-size: 16px;&quot;&gt;Technical&lt;/font&gt;&lt;/b&gt;" style="rounded=1;whiteSpace=wrap;html=1;fillColor=#1ba1e2;fontColor=#ffffff;strokeColor=#006EAF;" vertex="1" parent="1">
          <mxGeometry x="420" y="1090" width="120" height="60" as="geometry" />
        </mxCell>
        <mxCell id="uWoTVwZIR8hNObK4jhSC-38" value="" style="edgeStyle=orthogonalEdgeStyle;rounded=0;orthogonalLoop=1;jettySize=auto;html=1;" edge="1" parent="1" source="uWoTVwZIR8hNObK4jhSC-35" target="uWoTVwZIR8hNObK4jhSC-37">
          <mxGeometry relative="1" as="geometry" />
        </mxCell>
        <mxCell id="uWoTVwZIR8hNObK4jhSC-39" value="" style="edgeStyle=orthogonalEdgeStyle;rounded=0;orthogonalLoop=1;jettySize=auto;html=1;" edge="1" parent="1" source="uWoTVwZIR8hNObK4jhSC-35" target="uWoTVwZIR8hNObK4jhSC-37">
          <mxGeometry relative="1" as="geometry" />
        </mxCell>
        <mxCell id="uWoTVwZIR8hNObK4jhSC-41" value="" style="edgeStyle=orthogonalEdgeStyle;rounded=0;orthogonalLoop=1;jettySize=auto;html=1;" edge="1" parent="1" source="uWoTVwZIR8hNObK4jhSC-35" target="uWoTVwZIR8hNObK4jhSC-40">
          <mxGeometry relative="1" as="geometry" />
        </mxCell>
        <mxCell id="uWoTVwZIR8hNObK4jhSC-35" value="Devops" style="whiteSpace=wrap;html=1;fillColor=#1ba1e2;strokeColor=#006EAF;fontColor=#ffffff;rounded=1;" vertex="1" parent="1">
          <mxGeometry x="620" y="1090" width="120" height="60" as="geometry" />
        </mxCell>
        <mxCell id="uWoTVwZIR8hNObK4jhSC-43" value="" style="edgeStyle=orthogonalEdgeStyle;rounded=0;orthogonalLoop=1;jettySize=auto;html=1;" edge="1" parent="1" source="uWoTVwZIR8hNObK4jhSC-37" target="uWoTVwZIR8hNObK4jhSC-42">
          <mxGeometry relative="1" as="geometry" />
        </mxCell>
        <mxCell id="uWoTVwZIR8hNObK4jhSC-37" value="System/ Infra" style="whiteSpace=wrap;html=1;fillColor=#1ba1e2;strokeColor=#006EAF;fontColor=#ffffff;rounded=1;" vertex="1" parent="1">
          <mxGeometry x="540" y="1190" width="120" height="60" as="geometry" />
        </mxCell>
        <mxCell id="uWoTVwZIR8hNObK4jhSC-55" value="" style="edgeStyle=orthogonalEdgeStyle;rounded=0;orthogonalLoop=1;jettySize=auto;html=1;" edge="1" parent="1" source="uWoTVwZIR8hNObK4jhSC-40" target="uWoTVwZIR8hNObK4jhSC-54">
          <mxGeometry relative="1" as="geometry" />
        </mxCell>
        <mxCell id="uWoTVwZIR8hNObK4jhSC-40" value="Devlop / deploy" style="whiteSpace=wrap;html=1;fillColor=#1ba1e2;strokeColor=#006EAF;fontColor=#ffffff;rounded=1;" vertex="1" parent="1">
          <mxGeometry x="710" y="1190" width="120" height="60" as="geometry" />
        </mxCell>
        <mxCell id="uWoTVwZIR8hNObK4jhSC-45" value="" style="edgeStyle=orthogonalEdgeStyle;rounded=0;orthogonalLoop=1;jettySize=auto;html=1;" edge="1" parent="1" source="uWoTVwZIR8hNObK4jhSC-42" target="uWoTVwZIR8hNObK4jhSC-44">
          <mxGeometry relative="1" as="geometry" />
        </mxCell>
        <mxCell id="uWoTVwZIR8hNObK4jhSC-42" value="HW / Server&amp;nbsp;" style="whiteSpace=wrap;html=1;fillColor=#1ba1e2;strokeColor=#006EAF;fontColor=#ffffff;rounded=1;" vertex="1" parent="1">
          <mxGeometry x="540" y="1280" width="120" height="60" as="geometry" />
        </mxCell>
        <mxCell id="uWoTVwZIR8hNObK4jhSC-44" value="OS&amp;nbsp;" style="whiteSpace=wrap;html=1;fillColor=#1ba1e2;strokeColor=#006EAF;fontColor=#ffffff;rounded=1;" vertex="1" parent="1">
          <mxGeometry x="540" y="1370" width="120" height="60" as="geometry" />
        </mxCell>
        <mxCell id="uWoTVwZIR8hNObK4jhSC-46" value="" style="shape=image;verticalLabelPosition=bottom;labelBackgroundColor=default;verticalAlign=top;aspect=fixed;imageAspect=0;image=data:image/jpeg,/9j/4AAQSkZJRgABAQAAAQABAAD/2wCEAAkGBxAQERAPEhIQDxAQEBISFhAREhASEBAVFhUaFhgYFhUYHiggGRonGxMVITEhMSktLi4uFx8zODMtNygtLisBCgoKDg0OGxAQGyslICEwLTArKy03LjIwNzUtLTcrKy03LS8rLS0tLS4wMC0tLjUtLys1LSstLS03Ky0tLSsrLf/AABEIALcBEwMBIgACEQEDEQH/xAAcAAEBAAIDAQEAAAAAAAAAAAAABQMEAQIGBwj/xABLEAACAQMBAwQMCgcHBQEAAAAAAQIDBBEhBRIxE0FRYQYUIjRSU3FydJGz0RYyQoGSk6Gxw9IVIyQzosHCB3OCo7Lw8UNUYoOUNf/EABkBAQADAQEAAAAAAAAAAAAAAAACAwUEAf/EACoRAQACAgEDAwIGAwAAAAAAAAABAgMREgQxQRMhURQiIzJhcYHwBTOR/9oADAMBAAIRAxEAPwD7iAAAAAAAAAAAAAAGG8uI0qc6svi04Sm8ccRWXjr0A4ubuFJb05KK6+L8i4snQ7JrRvHKY86Mo/ejR2PZu8XbNwsqfxKPyEk+Ml8rqXDGvFtl+FtTisKEEuhRikBpfCG08dD1j4QWnjoes5pXKlcTocjiMIKXK7vct6acMc/TzM3uRj4MfooDQ+EFp46HrHwgtPHQ9Zo3e3I05zp9p3M91tb8LarOEutSjBpoxfCKP/Y3f/yV/wAgFP4QWnjoes5+EFp46HrOnbi5Dl1bVJPGeQVOKrvut34ssY6dcaHPba3Lifa1Rcg5pRcIb1fdjvZp4bynwXWgOJ9klolnlYvyKTf3Gay21b1nuwqRcvBeYyfkUkmzT7GNoq9to3EraVs5Oa5KrHuu5k1nVJtPHQd9o7AoVVvRhGlVXCpBKL/xJfGXUBZBH7HL6dSEoVP3tKTjLPF6ta/PGWvOknzlgAAAAAAAAAAAAAAAAAAAAAAAAAAAAAAEzsjf7PU86mvKnUin9hTJnZH3vPzqXtYgZNhxStrZLmoUv9CN08NtetNQtEpTiu1KTxGUorh1EuV1V8ZV+sn7zqx9LN68olVbLETp9NMdwpbr3fjc3D+Z8wneVfG1frKnvNOtf1l/1q31tT3k/obfMPPWj4fUZxuOZx49Xu+f5ziSuNcNLWWvc6LHc83T9x8euNp3C/69wv8A3VfeTLja90uFzc/X1fzHk9Hb5exlh94tFWy+U3cYWMczws83l+w2j860NuXKnFzubqUU9Uq9bLX0195ktdvuOHVr7QqZVTeULmtFJtYhu/rM4T1eSM9LaPKXN+hgfmqG363c71xet41xdXCTe6v/AD8LLxpxRsbN2/VdaguXvcuvTWXdV3F5qfKi5YxhrTnwRnp5+XvJ9z2UsXd2umef8uk/6n6y6Q9m9+XXnfhUC4c6QAAAAAAAAAAAAAAAAAAAAAAAAAAAAAEvslaVtPOmZ0l/mxKhD7Mu9l6Rbe3gB53bK7mz9DpfcaFbDp/FjHE8aLXg+d6m/tj4tn6HS+4nyq9xu8+9nq4YNbp4/Dq5Mn5pYJ1N5VMxjGEYNrEYpxeUo91jLfNrx1JjipN5bUIrelLTKXV0tvRdbXWVryVOUd1OSS1w4Jb0scW97/gkXNeUU47tNxbUtY51S3V/P1vpLdTr2RiYY7pw3q27yNNulQcY1FCUY70ISeFNPL464zqzzu01KMu6UU2k04KChJPg47nc48hS2hc06ssy3qeIUopwhGS7mCjLMcrnWjzwXAkbTuIy3Ixzu06e4nLClLupTbaXDupvTmWCEbWRpPqSPpGzNm7Bhax37q3ncTptyqVKjUk5r4vJb2mM44Z01PmdRnNtKHdb6k1uS3d3jv47nPV/vUqzYvUjUzP8J1nTaoUqWJt8jLuqihmo4Sk1GTg5xc+5g3uL59WsPOK33Fd0IwxuK6pJNNvP62PO3qlwT6Dti0zr2w1rwVNaZ0Xq6+br062qpds23J8o48vQ/ebuc8rHoCT9DbO78uvO/CoFwh7O78uvO/DoFwzFgAAAAAAAAAAAAAAAAAAAAAAAAAAAAAEPsy72XpFr7eBcIfZl3svSbX28APNbbliFn6FS+4mVLlNY3VnTulx0/wCDd7I5YjZehUvuIUqhr9NG8UOXJP3NurdRbzuR4YxwXHPMaN1VU9N1RWOY6SmYZyOiIhWlbQotEitE9JVjvLd9RFuaOGeTCUS1alamlrRhJ44uVRa+RMxUbiHioaNc8nzYw88cne5h3LMNrAqmkQsiXeVeKeeSg9W8PPBvPN6vmWgtKqlcWuIRhitQXc4W9ipHXRL39LZxWgcbNX7Rb+kUfaRK7QlEv0Ns9/tt0uv8OgXTz1h/+hcf4/Z2x6EylwAAAAAAAAAAAAAAAAAAAAAAAAAAAAAEvskgnbyys4nRfkaqxwyoTeyLvefnUvaxA8L2UvCsvQqZ5+Ui72WvSx9CpnnmbHTf6ocmT80uJSMbZ2Z0ZftB0kzBd095ZM7FNc3SBFvaeIPyGtaw0Km1KeIS+b7zUpwwkQsnWWtXiY9nr9fb+kUfaRNmsjHYR/X0P7+j7SJVfsnEvvmz4ft1y+jeXrp2/uL5D2d35ded+HQLhkOgAAAAAAAAAAAAAAAAAAAAAAAAAAAAACb2Rd7z86l7WJSJvZF3vPz6XtYgeJ29aSrT2dShhSnZ0kt7KXBvVryHD7BbvwqH06n5DeqzjG52XKTUYxtaTcpNJLR8Wz0s723bb7apRy29KtLOqxxzw0ydUZr0pWK/33Uca2tO3i/gHd+FQ+nP8hx8ArvwqH05/kPZ07ygpbzuqTS4LlocOvU2/wBL23j6H1tP3j6nK99KjwHwBu/Ct/pz/IcPsAu/Ct/pz/IfQP0vbePofW0/eYq+07aWMXNGOHxVWn7x9VlPSo+f7Q/s9vKkWlK3TeOM6mOOvyDXX9mt7j49t9ZU/IfRP0hbLEndUdEsvlqeHza69f3HR7Qt9P2yj9bS4esfU5XsY6w+cVP7Mr5/LtfrKn5CPtbsSuNn1bSVaVGSq3EFHk5SlhxnF65iuk+sbUurWtThT7coQ3atKpvctSbbhJTXP0pP5ug8t/aVfUa0tnqlVpVXG6TfJ1ITwsw44eh7XNe06kmsRHs9Zs7v26878KgXSFs7v26878OgXTkWgAAAAAAAAAAAAAAAAAAAAAAAAAAAAATeyHvefnUvaxKRO7IO95+dS9rEDxHZBHKs/QaP8yQ6Rf2tHKtPQqP8zLUtrOnCk5qtKpUhGW7CUEtca5lhcXjGcnZXPXFjibOGcOTNmmtHmZUzG4F/bFpQiqU6O+41IyeZvXTHNjTi18xq0IW0KVWtcOolTxpDdWc9b6y+MkWjlHlTNLVvNJ7wjygdN0qWtxY3VvUrW7qqUGluylGUXl9OF0M6bO2e68pRUlHdjvZab58cx7z7zL3U+0fKRdx7ia83/XExyp6Hqn2OxrU96nUilPDjJqTzHrXTnH2nnt3RHlMkW7F91jcpVemYrWn+to/3tP8A1ouTtqXJyk97fSjpjEVl91r1LD/3poUaa5Wk0sLlIc+flohGat/aPhKu9cv10+ubO79uvO/Cty6Qtnd+3XnfhUC6Z7RAAAAAAAAAAAAAAAAAAAAAAAAAAAAAAndkHe8/Ope1iUSd2QfuJefS9rEDyt+sq19Cof1GO9rW9SFJTjeQqU4qO/RjRakljTE201mKecZ49LRnulpbehUP6jEptcGdMUi9IiWbbqr4M9rUnUsN/VpShRp0YVIQpQccVMb2uOfLzwz85PrQoypVaVaFeUZpL9UoPHPnXg8lCom9XqzDlrg8eoupHGIivtrsojqber6k95Stm2lpbUZ0aMLlSk081FTS05nuvgst8OfyG5sm/wC15Sm6cqicN3Ecaap8/kMlacno236v99BrqUo8G0Sndt8vKVupte/OW5ZdkNKipYt6+ZauUpwafkXBLqXz5epAXxV5ChKvPXunr5Oc1o5er1b4vpYpSK715eZMs3iInw1pXMnKKlGckkk4uLzJdGr06TiCTqQajurfhhdHdIoRuKi4S+xe4xwi3OLer346/OiU1392vCrHEVmIiZfQ9n9+3XnfhW5dIWzu/brzvwrcumY3QAAAAAAAAAAAAAAAAAAAAAAAAAAAAAJ3ZB+4l59L2sSiTuyD9xLz6XtYiB5i54W3oVv/AFGJmaus9qrpsrf75E652hGnCE2s78N5JTWUsuOumnBllupx4aRN50xuqrM5bS2GjHOJ2uqm4m+OPedbmNSnClUlGO7V+LhvPTr0aMZeuw4ratM9ontPn2Swf4/PnrypEa3rvHiNukYxz3SbWHwaTzjQ15QWHo97TD5sc+V6ijQoKbecpJZbSzz4/mc17KO7KUZOW6lzLHFLV/Oe367DjyxitP3T+kvMfS5b4/UrHtH7I0oGJU8ZXWblfchCVSUsYajGC+NOXR1LHP8AYzt2nPkadw47samnN14+xHf43/Cv0r8Ofho7hkpw1j50fvRSoWClGMu71xw5PGtTc0zLo+3qMVxbqDhjOuHru+HjTDfQeTaJjSEVtExL1uzu/bry/hW5dIWzu/bry/hW5dMxvgAAAAAAAAAAAAAAAAAAAAAAAAAAAAATtv8A7iXnUvaRKJO2/wDuJedS9pEDyt3Pd7WfHFlbv1ORI5DuZUZQc4NS3XOks0nJ5bi1UXPr5fttXllWnG2nCnOpHtOjHMcaNZeNX0SRi7UvPFVv4feStgxZaxz8MvPW/qzMQ079OcJKOreNPI8mpOpXqRp03TjGNLSLUqmiby+Mmn6ipHZ90teQq/w+87dp3niq38PvGXpcOS27fGu/wu6fq+pwUmlI9t77fMaZNn3yoyc3CU044xHGeKfP5DZvduQq05U40alNyxrLcxo0+Z9RpxsbtaKlVS6Fu+/qO3al5w5Kt/D7zomKTbk56TlrThETr9mhSnydTlVBVU6U6bhJJxmnqs56Hg1bR1Y03Tl8SU1Ld1wmk1hdC1ehXhs+7XClVXk3feK+zrqSSdKq8a67vvOiMkdtwh+Lw46lr07tRjFbs3jdy1Gi1+83njKzw+3qOleqpuGMrDw8qC+Xn5PlNqls67jwpVF9D3j9FXTabo1M5Wr3eldZGZpHvtHhknUcZ/49Ds7v668v4VuXSDs7v668v4VuXjPbYAAAAAAAAAAAAAAAAAAAAAAAAAAAAAE/b3e9V80VGb8kJKT+yLKB0qwUk4tJqSaafBp8UwNDYE821v1UYJ+VLD+1G5WqbqzjPBY01beF955qjXqbObp1IzqWzk3Gqtd3PhN8/Tni9VnLSqLbttJZcmk/Cp1F98QN63r7+8mt1xxzp8etGYmLbtquFRLyQmv5D9P2vjV9Gp7gNu1ryqRU0lFSzhPLeM4TeOGVrjmyZMT6Y+p+8lx2rZrOKjjlt4jy0VlvLeEuk5/TFn46XrrgUbOs5p5SjKMnFpPKyuh4WdGjOSKO27KC3Y1IxWW8KM+LbbfDi222d/hDaeNXqn7gN6hcKWmHF4zhuD58fJbM7JS7IbTmqx15lGWv2Gnd9kik+St4TrVXou5a3etp83W8LrA52RLevbxrhFr7Y04ffRmehJmwdmdr08Seas5b85LVZfMm+Zfa23pkpgAAAAAAAAAAAAAAAAAAAAAAAAAAAAAAAAcNGBWNHOeSp5fPuRz68AAdu1afgQ+jEdq0/Ah9GJyAHa1PwIfRiO1qfgQ+jEAB2tDwI/RQ7Xh4EfooADidpTlo4QfljFnalRjFYjFRXRFJL1IADIAAAAAAAAAAAAAAAAAAP//Z;" vertex="1" parent="1">
          <mxGeometry x="-180" y="1100" width="275" height="183" as="geometry" />
        </mxCell>
        <mxCell id="uWoTVwZIR8hNObK4jhSC-48" style="edgeStyle=orthogonalEdgeStyle;rounded=0;orthogonalLoop=1;jettySize=auto;html=1;entryX=0.5;entryY=1;entryDx=0;entryDy=0;" edge="1" parent="1" source="uWoTVwZIR8hNObK4jhSC-47" target="uWoTVwZIR8hNObK4jhSC-46">
          <mxGeometry relative="1" as="geometry" />
        </mxCell>
        <mxCell id="uWoTVwZIR8hNObK4jhSC-47" value="OS--Anroid" style="rounded=1;whiteSpace=wrap;html=1;fillColor=#ffff88;strokeColor=#36393d;" vertex="1" parent="1">
          <mxGeometry x="-102" y="1310" width="120" height="60" as="geometry" />
        </mxCell>
        <mxCell id="uWoTVwZIR8hNObK4jhSC-49" value="" style="shape=image;verticalLabelPosition=bottom;labelBackgroundColor=default;verticalAlign=top;aspect=fixed;imageAspect=0;image=data:image/jpeg,/9j/4AAQSkZJRgABAQAAAQABAAD/2wCEAAkGBw8PDw8PDxAPDw8PDQ8NDg8NDw8NDQ0NFREWFhURFRUYHSggGBolGxUVITEjJSkrLi4vFx8zODMsNygtLisBCgoKDg0OGhAQFy0lHR0rLS0tLS0tLS0xLS0tLSstLS0rLS0rLS0tLS0tLS0tLSsrLS0vLS0tLS0rLSstLS0rLf/AABEIAKgBLAMBIgACEQEDEQH/xAAcAAABBQEBAQAAAAAAAAAAAAABAAIDBAUGBwj/xAA6EAACAQIEBAMFBwMDBQAAAAAAAQIDEQQSITEFQVFhBiJxEzKBkaEHFEJSscHRYvDxM3LhFiNjgpL/xAAZAQEBAAMBAAAAAAAAAAAAAAAAAQIDBAX/xAAjEQEAAwACAgMAAgMAAAAAAAAAAQIRAyExQQQSURMiMlKx/9oADAMBAAIRAxEAPwDy5sY2FjWepLy4I0OHPUzi/wAPepqv4Ze4dTgGbWHMTAcjawxxXdNV1CbAgM16zJsVxjYLgFsr1ZjpyKtWZrmNbKzhlWoUqtQdWqFKpULXj1nNzp1BjmROYkzoimNE2SZgoYh6Zliaeh6I0xyYw1KhyZGmPpRlN2irvm/wx9Rhp1/rou7LFLBylrJ5V+Ve98XyLGHwqhr70vzPl6dBsql5O+ydrcm+r/vkZ/WI7lhM71Bv3Km9nJPqpu5Xq05U35neL2ltr0Zf0drpfKwHFPNB6qy+T/cdT0dwoCBKLhLK/WL/ADRFcwmGUTohBcQU4QLiJhoiEAZBohTGiJ9YNSqY7OVxXMf44X7OGY0cxrPTlxQBf4duUC7gHZmq3hZ9OrwHI28MzncFU2NnD1TktDorLXVrCaRVhWH+1NeM9SSgRygL2o11BhqCtEoV2XK1QzsRULFTVOvMpSnqS4iZVzG6tWM2SpjkyFMcpGeJqZSHKRApDlImGplIdmIqUZSeWKu/09TZweAjDzS80uX5Y+iGGocJgpT1leMen4pfwatOnGKtFJJckFCMojGEyRnVPLKUXpd56d9pp7xX9Sd3bo+zNEjq04yTjJKSe6aumJjSJxXp1G12X0H4Z5nKXJ2Ue9t2u38Ajgaa/DftKUpRXwbsafC+FYjEynGhF1MqUrLLBQjtu3zZIjO5Xd6Z+JoKcbbNaxfRmZdptPRrRo2qkJRk4yTjKMnGUXo4yTs0yljsPm80feS/+l0Fo0icU8wcxXUx2c142anzCzEOcWYmGp8wrkOYOYCW4bkOYcpASXBcZmFmA4pjWOY1nfLkg1ljDTs0V2KMrGuyzDo8JXNahiDlMNibGjSxhy2hupLpo4gkWIOfhjO5NHF9zDGbb9uB1zJWKF95GC7WrFCvWIqmIKlWqZRAVaoQqQycwJm2GKZSCpESZJShKTUYptvkih+Yv4Hh06mr8sOr3foXeHcHUbSqeaW6j+FfyawTUFDDRpq0VbvzfqPZINkVATHXIxyYQ4QLiATL/BeNV8HKUqLis6UZKcc0Wls7dUUBCY1YnD8RWlUnKpN3lOUpyfWTd2yJjgNAZXEcPZ547P3kuT6lHOdC4305Pf0MPiGFdKWnuPZ9OxjMLEo84VMr5hykMXVjOHMV8wVImLqfMOzFfMLMTDVjMLMQZxZxhrl2NYWNOuXNAMA+nTlOSjFOUpOyjFXbfZHV8P8As8x9aKlJQpJ6pTd5fJGq9or5ltpx2t4hyUSeDfU7CX2Z41bTpP5ogqeAeIQXuQlblGerOa16z7b68N48w52M2SRrM0/+l8enb7tVv2Sa+dy1T8F8Rkk/YWv+adNNfUw+0frP6W/GKsQx33lnU4P7OsbP35UaS/3SqS+SX7mhhvsvquS9piYKN9fZ03drs29H8B94/VjhvPpw6rOTSV220kkrtt7JI7Pw/wCA6la08VJ047+yp2dS39Uto/U7Dg/gbCYWSqQjKVRKynUlncerS2T+B0NPDqKMJ5fxup8b3Z5h4p8DQw9GVfDTnJU1mqQqNSbgt5RaS9bHDpnuPiXERhQrOVsqpzun0yu55Rwng11GdXomofybuG8zGS1fJ460mJj2p8P4dOs9NIc5Pb4HTYPBQoq0Vrzk92TRjZWSslyQ43OSSCARUJsAmAKDBcLGhDggQQohBYICAETQASGV6MZxcZbP6PqPQSDlMTSdObi+X1RHmNLxCkpw6uL/AF/wZVxCpFIOYiuG5RLmFmIswsxBLmDmIcwcwGC2W+FcKr4qeSjByd9XtGPqze8I+DqmMaq1r08Oue0qnZdu565wjhNKjBQpQUILklv3Y5fkRXqPLZw/Gm3dvDC8FeC6eESnNKpXa1m1pHtE72hh7LYWGo2LqVjitabTsu+IisZCpOgitWoov1X0M+tVtozBtrKD2SJIQRWctbJk1OotNSMshajFdCaytsVoVUKWIVtxhqfOkiriqqSZDLGJJfH6HN+IePwoU5Tk9tElvKXKKDJh+NOKOdSGGg/e81S3KCe3xf6Mq0o2SMnh6nVqTr1PeqSzdkuSXY10dvHT6w8nn5PvbfRwBBNjQFxAGzmopyeyTb9EgGYjEQp6zkkvq/RDcPi6dT3JXa3Vmn8mc3iq7qTcpbvZckuiFha7pzjNa2e211zRR1ZGylgnUm/aKtmhfWEoK6/p029S/YgMRwIocUAIhEBEINgBYjxFeNOLlNpJa6lXiXFIUFb3pv3YRtmffsu7+r0OaxOJnVlmqO7veMVfJD06vu/psNZYlx2KdWbm9FtFPdLv3/4IBoSoNxXAIA3FcAAHXFcbcVwPdcFhLJKySSsktEkatGkkGnSsWIwPOeqchOTDYZMuJqKpUKWMkpRfUsVJGfin0DKGVUquDu28r0uGnj6eqi9epXx9TyTXbTszzvi/iqeDl7OMVUqPzO7ypGOTrb/XNl6e8XZaGfxDjEacXmnGP+5qKPKK3i7iFbRTjSX/AI43fzZBDB1K8lOtOdSXJzblb06G2vFM+XNb5FY8du0x/jamvLh715pOKavGkm+ebn8LmFCnWxM/aYiWZ/hitIQXRIkwXD4xtoatGmkdFOOtXJy8979TPR9CCirE1xqCjY0HXFcaxAG4ypBSi4vaSadtwiA5nHYZ0p5b3Vrxe10ScNwftpPW0Y2ba312SN6vhoVLZ4qVtt018Q4fDQp3yRUb776jUw3CYSNJNRbabv5rdCdBsIByCBBQUg2ChtWrGCu3+wBehjcU4wsjVGcXJ6KStUSV7N7269V2aemZxjiUqsnCMv8AtWtaN06j53fNdvnfRmeieWWDfVtttyd5Sk7yk+rYUNCiocK4AgK4riAAbiAIIILgEUfS6gSLQfYhqSPPiHp6FSRBUmKpIq1JmSQbVqFDFS0J6tQzcbWsmYy21ZuN1063PIuOUs2Prp62Uct+h6zSvObetorU8/8AG/DZUsRHExV01lqLsKzlmXJSbccxHln4PCI2sLQSKeCSaTWqaumatBHZDyZlNCJKkCKHMrEEOuNHFQgZggAFxyYwdEBwUBBQBCIQBQRk6iim5NJJXbbsrHP4/wASK8o0k3bRTekW+q56fD4Wu2rENTivFVQirLNJuyWyTtu+i/463OYxGPq1VapJPqorLF6327f87tt1KmIlN5pO7fX9F0QFMjJJcKI1IcmVEghqYbgOEC4rlDrguC4ggiAIAgEII+mfaXXcr1KlhtR6XRVr1TgiXpzHZ9aqUqtYFSZQr1LF1YqfVrGPj8Q3oS4mvYq0aTk0+r0+BhaW+lVzBUrU3Z7q/dMy+L4ZVYSUktUzWq3glCN7v6Ec8PfTlz9TCG/6w80wlN0KjpS0hJt030f5TbpIveJuEXhKSTurNNb36mLwXHKtBp6Tg3Ca7rn6P+9jq4b7/WXm/M4PrP3r4lpocNQbnQ4BEK4rgIaOFYADkJINgEggHIByRU4hj6dCOackui3bfRLmZ3GfEMKCcYeep0W0fX+P8HF4zF1K0nOo3J/RLokYzb8ZxX9aPFeNTxDt7tO+kVz6N9TPVQr3FmJErK0qg5VCnmHKZlqYuKoPVUo5xyqDUxeVQeqhQVQcqpdF9TDnKSqjlVLqLmYOYqKqOVUCzcNysqg5VComuK5F7QOcD6O9toVa87js14spupa9zz9epEZKOc7LUzcTVJsRXzMzsRU1MZltrGyinqzQoU/NBcoxu/V/2ynSh13L+Gi3d9X9FoYa3RGDBZqnaKfPm9P5LPsLarXlbkRcPoJuUv6n8tjSjBLUQytkdMfH4fNCVvk9zzmng3SrVsuko1HJLqmk7Hq2O93RHnfF17LFXadqsL6JuzXp6osTMT0mRaJifEn0qikk18eqfQeZ8sVCErp6Sdpp6a8pf3/JeTO7jv8AaNeLz8M8V89ejgjQozaTkIAShyCNK2IxeV5IRdSo9oR39X0Xf9diTMRGytazachPXrRgnKbUUtW3oWOFcFr4+MneeHouLVOdrVJS5Ss9o/V9i14e8KTqyWIxjUpJ3hSX+nT7933Z6DhaUYxskrW5HJfmm3VfD0uL4kVjbdz/AMfOPHeDVsHXnQrrzx1Ul7tSD2nHs/2aM1wPWPtiwkcmFrW86qzpX5uDi5frH6nmDgbaTsOXlr9bTCo4AcS04AdMya1WwCy6Y10wIBXJXTG5ChtwqQsgspdTBUh2cjsIamJM45VCEFy6YsKoOVUq3FmLqYtqqO9qU8ws5dTH0pSq6fArYxaaDcK7xFiJapHnb09eI7ZuIjKCXcip0m9XsWazdSduSLNKnq+iRhLdHUKipeZfMu4SPlXxGxW7tvoi1gqfkT9SR5JnpHw+9pR2tN8u9y9Tk1yuVMP704rqm/kaMKX+ORYW3bP4jO8HbdLqYOEoqq887Nu8fh0OnxlC8Xy/Y5rh9eKqTgndKV01qtejL7KeFXi3CKck/Kmu6RzlO9OXs5bfgb5r8vr/AH1O3xcrqyTfLY5/FcFqVb+W19Yt2TT5My47zWxz8NeXjyfPpQTHluhwWropygnzyXl+pv4Lw5Sas3Jvrex1zzVeVHxOSfMY5UTl827JLVt9EX/FHDfuVOVZyvTjv1XQh8GNVV94qK0pf6cXvCHX1YtyxEacfxb2v9ZafDOAuaUq90ntTi7P/wBn+yLVXgdPBxlVoReW+apGbc5d2pPU3cI02uhb4pl9hO+2SXysc02m3l6NeOnF/jDCwPF4SSV7GnDiMEveVlvryPCI4movdqVF6Tkv3BVxVSStKpUkukpykvk2ZfxT+tE/Mr/q6f7RfEMMZWhTpPNSoZryW06r0bXZJb92cfYeKxviMjHFe02nZR5RZSSwbFYocgHAnsBoCu4DXAsOIMoFf2YHTLGUWUqKrpjXTLeUDgBTdMa4F3INdMCm4jXEtumNdMqKtgFh0wezA+g+H6r4klWm2xCOD09be0VDD2bY+nF+ZdxCMWUTp06bS05IuYeOWCXYQiwmouH2c6r/AKkvojUg0uQhCvhtv5ZnF5uSVKLt7R2lbdQ5/wAfEFLBRUUrLRWSWlhCHtlHVYValoVLPZx09RTXlcuzsIQ9rnUSycHiFJt8zouG1o2AIQvJDG8f1YywdWO7cHZbttHDcDxrppRfYQi2YV6h1/DuM295pd3tY53xn4xlWzYeg7U9qlSL1n1jHt3EIz4o2e3L8vkmIjPbiBCEdLziEIQBCIQCAIRQLAsIQCsKwhBCsCwhAKwHEQigZQOAhBDXAY4CEB//2Q==;" vertex="1" parent="1">
          <mxGeometry x="30" y="1121.2" width="230" height="128.8" as="geometry" />
        </mxCell>
        <mxCell id="uWoTVwZIR8hNObK4jhSC-50" value="OS--IOS" style="rounded=1;whiteSpace=wrap;html=1;fillColor=#cdeb8b;strokeColor=#36393d;" vertex="1" parent="1">
          <mxGeometry x="85" y="1310" width="120" height="60" as="geometry" />
        </mxCell>
        <mxCell id="uWoTVwZIR8hNObK4jhSC-51" style="edgeStyle=orthogonalEdgeStyle;rounded=0;orthogonalLoop=1;jettySize=auto;html=1;entryX=0.517;entryY=1.021;entryDx=0;entryDy=0;entryPerimeter=0;" edge="1" parent="1" source="uWoTVwZIR8hNObK4jhSC-50" target="uWoTVwZIR8hNObK4jhSC-49">
          <mxGeometry relative="1" as="geometry" />
        </mxCell>
        <mxCell id="uWoTVwZIR8hNObK4jhSC-53" style="edgeStyle=orthogonalEdgeStyle;rounded=0;orthogonalLoop=1;jettySize=auto;html=1;" edge="1" parent="1" source="uWoTVwZIR8hNObK4jhSC-52" target="uWoTVwZIR8hNObK4jhSC-37">
          <mxGeometry relative="1" as="geometry" />
        </mxCell>
        <mxCell id="uWoTVwZIR8hNObK4jhSC-52" value="" style="shape=image;verticalLabelPosition=bottom;labelBackgroundColor=default;verticalAlign=top;aspect=fixed;imageAspect=0;image=data:image/jpeg,/9j/4AAQSkZJRgABAQAAAQABAAD/2wCEAAkGBxMSEhUTExIVFRUXGBkWFxcYGBcbGhUVFRkWFxYXFRcYHSggGBolGxgWITEhJSkrLi4uFx8zODMtNygtLisBCgoKDg0OGxAQGy0lICYtLS0tLS0rLSstLS0tLS0tLS0tLS0vLS0vLS0tLS0tLS0tLS0tLS0tLS0tLS0tLS0tLf/AABEIAMsA+AMBIgACEQEDEQH/xAAcAAACAgMBAQAAAAAAAAAAAAAFBgMEAQIHAAj/xABLEAABAgMFBAcFBQUGAwkBAAABAhEAAwQFEiExQQZRYXETIjKBkaGxFEJywdEjUmLh8BVDU4KSBzNjssLxRKLSFlRzg5Ojs9PiJP/EABoBAAMBAQEBAAAAAAAAAAAAAAECAwQABQb/xAAyEQACAgEDAgQEBgEFAQAAAAAAAQIRAxIhMQRBEyIyURRhgbEFQnGRofDRM1LB4fEj/9oADAMBAAIRAxEAPwDisgspPOO57ILnKki+kMwZs+EcMRgRHT7CtyYoypSZikBgMEhzgdSG0j1sTcZbE20dA9nUVPdOW4xqilUFq6qsTuO4cIpCTPUXE+YBylt/li0mjmlN72hYU7M0pwN73Mo2aiTNpdKq4oXFP1vdVvLaRsZKrqRcXgU+4veH0it0c4f8RM8ZGP8AyRQqqhUssuvmpOedP/8AVA1B3Dc2WbyTcXkfcXw4RqhJCldReLe4vcPwwDRayRnXLPNUn5S48bclMxq35ql/JMdrOphaRKIlqBSt+u3UXqpRGm4iJlIJZkLz/hzNx/DABNu038dJ/mHyEFJW0UsyytKwUjAqvFgY7V7M7ctiQoKJuKZh7qvxPpEN3qqHxHI7zFKbtFLUD9rgeJLiKRtOnYgKSHBGA0OekFTXdnUw+qSrA3T4HVm0j3squt1T4HdAE21L/jq/qP0ivMtaUf8AiZn9aoDyL3QaZB/aVKnppuqE9EwC/vA6NHIqUHrcsYctu7SmpnIk9KtUvo7xSpRLklWJfOFU04Dlz2b3DH/ePPzTuW5RK2yGhLLSeIjr1g7QTFqCEFIAGOblmjkEkYp7o6Dsko9IXZwDizbmwiuPmyep3Q/JrKg5qDcj9YkmdKA7px4RzRdszvaFJM1QDlnUQIvKtOb/ABk/1/nHp9PhWWOpSS/VmTNn8OWmh4VNmbk+EVTVL1Mvw/OEyqtNYQftscGZRitM6Ql3PjEuo/8AjLSnf6FcE1lV1Q/Cq39H4R5VQk53PCOfmTNOp8YxLvBwomJwzSk6HyaYq6OiyJ8t8bp7hFtdVKHup8BHOaRBUoMdYM2k14O+UGWRpnQqSuhhqJ6FZMOURpqEguCmFa8OMZUANTA8aQ2hDOqvbK7FC1bdXKlqUGy0gJhvMQ27LamVnjEsmSTix0khItSeZ6zM1eMxHSowbjHo8yeRqReEVRQWMe/5w8bMhSZsoKKmVdKXGgd7vCEqcMe8+sdZ2XXIXSS1LEsTkKShBcBRSSnR8czG2HJnqxb2tmNVgk4dUnleL4RKqbJYKM+WAcj0K2PL7OC9v2MqYu+JAmF2xUR1cTooawNTYM7IUiGx/eL94Mof32ojVhz5MN6Ut/dWRy4VkdsxTVVOOsqcFIBYtJVjw7IilZtKVyUkMMVDzJ+cEk7PTyMaSXo7zFe6GT++0GEMNHYt2WE3ZaN4BUQ5zOL+sdlyTzta629lQceJY7oVxZKyMx+jGk2zVS1JUdHduRhyNljhkzh/mPWNJ1ihWF/15bsO6EWOnaKSWpNMUkTbxYO55wwUMjo6ZYZ8QWPFonp9nUpxv+R+kX1UQCLgVnqB35PFG5S9RPHijj4F8q/wx4flGUMc5Y8IKmzf8U/0/wD6jKaADOYfAfWE0lQMf/C8j9IklSwSAUABxi2UETQp/iny+sbSqSUkgqmEtjmB5wNIbEb+0SmX7SlVwhHRgBbFiQS4fLB/OAEwdrghPomHra63ROSqiQkG600rvYDIBLNnjvhGnYGZySPIfSMOZeZfqUh+b9CrTZp7o7LS0Uq4iekELmJ6wd8hxjjcoZd0dN2Tn0V4n2gmZiAMnBY4JPyMacKtkNSQItOx/tCejmknHDL/ACxCbNUf3M05Z8P5Y6pIkSVEf3jH8J+kWzQSHOKu/wD2irxpf+A1JnJ5FilSgDKmMN5/KGNNlK3ZQZ2hJQB0CSos51gKqsqOje4AriR6RWONJC+IiQWcrdFGqsJSi8U5lfW7kjvT9YlkzaxeAKb3NMK0ntQ2qgjZ9jlGsTVlGVKcNAapl10vtqSO8RUVPqD+9T4wrpbUFSvgOfs9XCNl0B4Qv36jWcPGNCuc/wDfesLqXsHcYBQnhElauVLlETGLjzgAqoW3956wGt2Yu6DffGBNpLY5N+wPqgAstk+EZiCas4PGY8ucbkzVB+VA6pGJ+I+sOey9q0Eso9o6S8EpYsWSsKJ6tzRrvaeE6qGKviPrEE8/LwaNuvTvRlrVsfRNLMkzEJWiWtSVYhTi6obwXYiCSk0wA+zu81vln70cXsMA0jlLKvOkkukIwvAAdUe+747ob9lf2fdCq2cpC5a7yAHY4hTqDEFjL10cZOIvrvf7WLpfuNlpzJNxYlBN73cS48XEKFMuoRMWJlRThnDKmyyxDaJOGYhwrdo7HWoLVMUpaUlCSlDXbxS+CQAS6U5/OOb1dXJVNmKIUpKlkoZQTgbuboXvfSHWao7X9RfDbe7/AJJaqXVlRIrZIG4LWd+iZfAxXk01QD17QRqMPaTmQP4bfp40NTI/7ve+Jajor7socu/uiSXNQT1aRJx06YnAgnJQx1hNTbG0xXISlbFVc2X06a43M3CZ+DZ4Fjh5QFnUF1TKtBZIw/ujvAyVNG/9GOj2XtbKl06ZakFCkpZiFYZnB3JOO/vhCtK0uuoiShCScAUPhhqpRfB4ZxmrtEMWSMnT/rBxs2UouaudplKRx/xzujJsunZumqFONEIGYfeYkTaRVpK/olDe+aOUTmmWtOPRMN3RDMXfdRjn+soTTJ8I0XD3KkihkSzeQqofH7gfAH+EY9NkSNUThn+8Sh8Bndkgb+EEJdmTJZEwGU6Df34oAOIAD5ZaxPbdVPnpK5sySlLXjdSsMGfMqwiixZKexOWTEquhNr6b/wDoWmVfYIHaIKtMyAHyEU6g4zOYHgDBegn36iepJBZIAIyLaiA1T+8P4v8AqjDkS8r+b+5oxv1fQjlZf0xWkrN9JDu4yzfRm4xak/SO5bPbEWVOkKUukVLN4gBazfSzM5SojjnrFNFqyalToSplbMIQRMmElIvXlHBWGjYZnAvD/s/S0qftZtWlRWnGWouEktoDn9YKS9kbOB60tSsNVr+sX7P2Xs9Sjdp06M5J9TwEUebSnyBpS2FLaY0iJEzoagLWXN3noncBCMlcvVan5J3770dW25sOlkyepToSd4AjjForYsA0Xgnlgp3+/wD0Qlmjiloov9JK3rPePrBzZWslImhRfvhXTPASCWzEHPbJfQOCl8eecXxdPb3ZHN1e1JDHtrasmYkNieEIxqUfd8419v74gXMQrSEnhXZnYupcVui2lV7JPrGBSLOhiqE/dUREQrZ6CWLxJ4kuTQuob7B6WoCXc6N1DMwuWgeslJ3xYRbSg95JgNaNX9olREDKsaimnuCGTJKTTWxvaeceivWzr2PCPR5vLbPQWyRXrB1lfF9I65/ZXZ9HNly/aKGSr7Nf2i7qzNImNigjqXQQnjHJq5PWXz+Qg/s7tQKMJuyL6ylQUQpiQVJIcMcgD4xsiottSdGOWrsdzl2DZicRRymdwm7gHzYHLWLsumobyQmkkDrDHo0fSFOyK81MlM5CpQQrEX5iEHiCklxG1baaJJRenS3UcAhQXiCkF2bVQ8Yp4EHxL+RNc/8AadGmU0pMtRTKlAAHIADLgmODbUzWmLwSMdP9of6u21p+xVeClgkA6gM5wPEQqWpZVEpaukrVuCQQiSsscN44jXfuinTw8CMnJ88EsyeZrR2EugnMS5A/XOClh2uhExlqYXll7pOKglsuUXv2TZacTUViv/KSnedSN0YXS2SPcq14/wASWnUD73H9GHXU1wL8G3yDrWtBJWSkuMMYqm0jvgwmXZYxTRT1fFUcCfcB3RsaqhT2bNQfjmTju3J4+XgZdU3yGPRV3AJnoVmlPg3mIgqZMu6WWU8lfWGX9rU6ezZ9InmFHVveIjZO0ZDXKelTllJQdSPvnd/vEnmT7FY9M13FGXUTUdieFcFPjw1iY2nPIumUsuD1kgqDtnh84Z/+09Rgwlpy7MlI3v7piI7S1Rb7ZQyyuje/uD9boTxWuGyj6eL9QiiuKZkwKJUVFnAZsVZhgxcxFU+/xX9YktyoMyqUVYqv4q1U5zVvMQTS/es+qfrGBt619TUklBmUDLujo+zW2slKhTgTHUogFRKusWYXiXLmOfSEOD/LFemrFhHQhrpmBeQcKThgrMYRqhlcDM8SnyfRATOOaCPiKR84jo7WKVqSFAqTmElyG3tHNjMUWKipiApLg9YEjEOMRxhwoNpKGUkEUyisjrqxF4lifONPjJ7SQjwNbxYTtu0DVpI6VKEpzUo4YFiObwl1GzUknrV0nucwT2h2pkTpPRSqcSi+YKd5JcBsXeFoUc043V+B4cY55dtMFt7HLp4t6pcl07PUgGNY/JCowbGox/xEw8ktFT2JbYpbiS3qIYNj7ERNmfaMRucfKFjOT7BnjxwV0CPYKJPvTT4R4S6MZIWe8Qb2xsaVKV1CAOcKxlJ+96wJTkhscYSV0ERPpRlKPeY1VXSBlJHnA5SUgZxCIR5JFdKCarQl6Sk+EKu1s5KilkgHhDBOoJiU3ilhAWqpelmAbhCyUpPSCUlFWAVn7OPRLaku7hHowN0Xe9FqtR1l8x6CK0utmSJqZktRQoJIBG4ggjwMEKwdZXd6QMtBGXL5mNLe5CKoZNm5ajTEsbqC6y2AC8sxjyG4vhDdYFvyKYLE2mRUdYlBX0fV7TtfBYkDSFHZoj2fLMlKtxHgSMMMGi9MVni2eraK/GP14xSPAzH1P9pIDhFFJDuk4pODkN1eUJs5CqiYuYEAOSojABN4oIxWnLDfp3ioT6njqvir9eAjCA+Q8OKPwcN+nDA7I6i4KEpxJkht82S2Ss2UktjGU0ofGdKGOQWo+8n7ijy792EU3IyH6ZX4hr+tYyV8fPiDvO7/AGgr5HN1ydXsyy6X2QBQQSU4qc3n4E44YfOOaV8iQlagFkgE5S0tkMiog7oil2lNSm6JiglmYHDXDsjh4RTVUDf67gNCN0Ukm+zMuKoPeS/ct3pW+Yc8ike9wWdY0mqGF0LG+8Sr3vh5/lFcVAP+53vq8VaqtUhz0ZI4Xd/APrCuEkroussG6sJWfRqmzESkBJWogAG6MReOJug5AxPaVlTKcgTLmYHVKt/dC3Kt0EsQpPIlxrh3xbnVCT1goqVo54jUu0CMG0/8gnlUXv8AY0oaFMz2uYR2Flu4GASM0/Ef9MHbEqWlVIOalHUHMbxzgFL9z4j8ojkaahXs/uxsafnv3X2RdpMj/LA1AaYNxI8zBGiV8o6BZWwdNPl3wqaCFYFQunBs0KAaGhjc+BMmWOOrBM3FhiWAAJ3YZ4M+A8NIgA4eTaDgId5Wysl+sVHw+kGqbZGkuuUE95+UXliceWTXVQfBy0nj5/F+L9emVLPHz4c4drTsuQjsoHiTCdaJAOGEaF0UnHVZF9fG6pkL/puPKLFFXrlF0lv1zgXUTCBgXil7S+amMJ4Gh+ob4nWvSMNfaSppdanil0g3wN6aNAswJY43uwRzySpJBKdUBOkVBayXjMsKPunwjxspa/3Z8IWWKPZjxzzfKL021VTEsVkjdA+z6r7UvuiNWzdQMUggcYC1SVyphBcGI5J6adFYxlLl7E9sKdRPGMxXq1OBHoyRVqzVLZhWqPWVyHzhm2NsKnqiOmlrVioO5CGCQQHBBvuThuhTrFdc/CPVUHNmtok0l1ar6g56oUWxSz3cnyxzzjRhcdfmM2ZScPLyP0rYumki6m/dJKmKgQH3YP4wYs7Zyl1lvzUr5GKVn18yslpmSJa1JIzSkKAOqSQcxyiapqJtMAqcUywcBeN3LE6HSPQ8OGnZqzz1LM33LlqWPSoAuyUDDc/rCXbIQnspSOQAhitSfMN0KJQVdm8l72D4Yp0c90CayyKa8ROr0uMCmWlZIOGYKTvEWxShhhct2Tljy5ZbfcTVqxOLRQqZqgdSOY+kOSrPstPanVUz+S6NTm6d0RL/AGUMBTT185wGTaOd8Qn1KlwaIdJJc0JqZ4zSpXEKcH6HxjWbUjeIdRPox2LMlnitUxW/cANPPxwNogn+7paVHKWFaP7yok8zLrp0+4mSlE5BR5An0i/Jo56x1ZE0/wAivmIZJm1FT7qkoz7EpKdHzCDFWftBUqcGoma4XgNBoCmB41B+Fi+Qb/2TqpudIvmbo83eIjsDVDH7NKfurmpD6s+MXJ1TMU7rWc81L3cXEQoPW0Jf8L5dxiU3GXKLQxqPAny0KRNukFOOT9+YwIiSX7nMxChTzSeKvnEiDijkT5qjz8b8xofoZYpl5d0dM2a2vlv0BUpSySbyiMThg4AfcMNI5NKmMRFijtEoCUhIChNEwTMb4bBgd2sbMWXw38mZcuFZFud2QZ6i4lKb4fzjeXaa8UhiRmA+HNgWhENtTll1T1kOPfVi5H4ucN1DtBZslLpkzVLUHWesyiXJfrZOT4xu+Ji+YmV9HS2ZWn0y5wKumloGTqOHdk8CZ1hU2a65B+EE/WLO1O0siehMuRI6JiNRi3ANjjC37LM1B73Gh3vAydVKWy4KY+khHlbhVVlWenOfNXyS30iH2SzxkiavmoCB6pG8oHen5Q57C0Ug3jMKTz/OJRm3z/kpOMMauhcM2kT2ab+okxg2pLHZkSx3PF7a6VJTONzLcIAFSdxhZyknQ+KpRtIvm21aJSOSRES7YmnWKS1DQRtTSwpQBLAnPdCa5PuUpEi7QmHNRhMtqcVTS8O9rU0uX2ZgVCDWqeao8YhntKmNHczUHKPRrUaR6Fx8DT5LdpTOt3fMxFT1plrlzAEkoLsoApPAg4ERi0T1hyios5QJypMRIbtmrRmGXMCVKAvmYUJJCUpJTeN0EBKRvy55Fv2ctKklFftclVQPcF18WAJN4lsCRmdYRtkpxSiZdJF5kqGhGLM2RDnNxwgkANzbsPg3pHr+Vscm4oDR0lX9otKh+is5GRDlUtJbHDJ/d3/kk1cxVRNXMShgpRUz4Jchg5DaRQDtr5/i3KO8afKPdGXy8hvB1SN2+HAklwTy6YpI60oH4pZ0PupIJ8NI3RJS4eYkh9BMOqfwkRTvNmoDmW0I+8fSIl1UsZrT5HcdE8I76BbR2Ci9kFEE9Q9XHqh337xHMqtcu8q6lZD4dYgMxbAJIECzbaBhfUR/M2e4mIplpIGITe3HDFsMwIo7fBmxQ8N7sImanSWjvLnLgpMazVk6NmMHAy4u8A6i3FjKWlt5KlDLUYRWFvrfFKOaRjzxeM7yJOnsab2tDdZEqQuaEz5nRS2JKkgPeuhkuA4feRpyjS01SErAkzFrSMyq8zMWZ0jyhZTaRW3X3D7uGDuBgTnlFSuSScHVjljFdPkbVE1k81FKmPXf4vQxMc0/D81RDTDr5NgrDdgYnm4KT8P1jz8XJpl6CqDGJXaD7xlHhDJZ9gJmB2UkhWueGhGUacfT5M/o7EMuaOJXIMTp5VdBJJSAkZ5BtHLDLCIhy/THeBBiRZ6NQTFibKQkYJj1F+HZXu6Rjl+IYlxbATHj57xuJjDH9d/ARYq55Aa7hv1gBVkvE8nSaO40OsUuEFFzQM1Dx/OPS7WEvszG5flC3NUYrKCjoYztaeC96lvQ0zrUSrEkmKNTa93JLwJkU83RJi8ihWrRoNKQNTi/kaft4v2Q3OJE2te1aI51ik5QLqKVaDiIg3PHyrQ9xnw6CNdPU2ZgSjONhMO+MSkknCJ55LI1Q+OOnklqRjHo0mLc4x6Ohsh5O2TV+Y5RPY9GJimKSQ4BOgd82OsQV2nf8oK7IkCY5zCkN1iMyQerkrDflFenipZlF8EM0nHE2hhsuxES72bKLtubQfnBqRTS0jBHdl6QVkSpaxgGVudgfVomTZZP8MD+dR+Qj6BYsGP8p4jz5pfmYt1a2xSj1PrAS0Jil5pY8vlDdXUZTgF4ZlkJA/zEwv1stziTHZdKja+x2NylL3FacCIpTVGGv2JH3QecSopk/dbyjy5qz1IWuUJYp5iskKPcYt0tDPHuYagkN6vDpIs9aw0uWpXwpKvQQRp9lKwhzIUOKmQP+ciJ6KfJXU2uBHlWYo4uB4/QRHPsInEEP4R0lOxM1Q665KRr173/AMYVGw2Wp5Y61UC2aZaHPcFqSfKOlGMlTVgSa4OOVFKtBZQbj84wlQBIUSQMHTj66R2VVj0bN0c+Z8fRpT4Bz5wDtrZSUby6dHs7gsla76XIxN4gEHcfWM3w0o7xLKV8nOKSQtV5SEkhAvE/dS4DnxjPSFSnO5v00elICekClFKgGCQHClBQcKILMMTrkIiSrGM+Kth3wapjqezSUXCDjjm5Uch72scsEPGzFeB9mWSXyGADtHp/hc1GTswfiEG4Kh5FACeqARvJ+QER1VmlId0vwBPmoiLtDSTMAQQCHBLANzJA84vrp5IHXmpfgp/8gMetPOovk82PTzktoiJXSzkT5QIXRg5x0Ndn0inJmFuX/UQT4RUm/s6V2ryuZPpdHrGXPlUnszZg6dpeZCSigR93yizJs/cmGRW1VCjCXT3j8BJ/5njA2vmqwk0ih/Ld9GjLqj7mxY6BNPYU9WUstyMXpey005gJ5kRmstmu94IRzL+kDJtoT1duo7kj5xzlFdmFRvgLy9lkpzmJ7sYyvZ+nI6xKu6B8q2ESxgCTvUcYo1m1Te8BygPJCuBlE9bWysliqWGw1hBCbilAliHHOGCt2nKnAJMLE5ZUSTrjGDPON2isUeePRgR6Jahi1WnKJrHnFCr7BklJJIy6wyOkQVmnfGKWakJWFFWKWABLEuCH3xRT0ZLJuOqFM6vs8tVR/dAqLOQM2GcM9JS9UGZMTLB0WpKT/STe8o5DsHaVyf0anVLWCbozCgMCPSOg/teSMpJ71pH+mPWj10ssL2RhXQQi+4cqZdGzdK5/CFr/ANKR5xUm0NAMVKmK4AXfG6mZ6wKO0A92SgfEpR/ytEM7aKYMuhRxun/UDCSzNqnJlo9PCLtIvTrZsuR+4Uo/iE1foof5Yhl7fSc6WgUviiQkjxuBXnAiftUsZ1aU/AEg+V0wKqNqJeSqiavgCpvMERllNLv/AH9y6j8huVtdak3CXRqQP8SYED+mYYGVlo2kD9pUUsn4StRH/pgpMLlHthKlKvJlrVzP5/KKVrbYLmqdMtCeJxPjn5wPEgo3YPNq/v3/AOK+ofmTFLIM6tnz06oloEsHcL4JLdzxfRbyZSbsmQhAGqlFR5ku5PExzudbE9Wa25RUJWvMqV4mJeO16V/f5KaR9rNrVYvOA4Ib/TjAKp2ivFheUTqosPEwDFnTf4ahzDesEqHZ9a0KISVLA6qAQXxGZB3GEllySDSAkxTkneX8YymPLSQWIIILEHAgjMER4RDGvNYWYEW5tU02+hanDFycXAioI80Mm0tgHYrPtiUqUhSkKJKQTiGxGnCJVW5LGUrxUPpHJUWpOACQtgAwDDId0aLr5pzmK8SPSNnxTF0I6wvaDciWP6j84o1G0atZkpPcPmI5heWrVR7yYuU1iVC+zKWeLFvGO+Im+x2lDdUbSIdzPc/hH0ikNqpaVP11c4H02yE9R6xQnmoP4CDFNsF96a/wg/lHasrYGk1RVtfbLpAyUeMAZlsTVZFuQh3kbGyh7pU28geUS/seWkdVCfX1jpRm+WFI50uZNVmVHxjAoph90x0P9ljgOQiFVOhLgxJ4x6E+RYi1JJ1GQgUtLFjmIdKmsMl1JS/CE6omlaio6l4hkSSONI9HjHonNnIuWgMe8xTEXbTHWPMxLYFB08xSGUWQpTJZ8G+9hF5LziR9JRp5ykKCkliMjhrhrFpdrTz+9Pcw9BBJWzpvKSSUlLYMCetiNW84sU+y778iTeUhGAD7jniwBeCoPsM3QvLq5hzmLP8AMfrGkuUpZYAqPAEmHKlslEtSLstCnV1iReYYaLXhrkDG8y2VJWUCoudYgIQClsciEBvEwfDXc4XafZirWHFPMA3rFweK2EEaTYmcrtTZCP575/8AbCvWCkhV5YxWogpJKg+BPMnSG+XUygSQboZOAYknFyA/w+EWjiiAU6b+z5Hvz1q4S5bDuUtXyi/J2Mp0pKuhKwnElc8HxRLCSOTwdVa6EDqpmKA33U+ggbOtdRSQmUwPaUAcTljeJ8mimmCOpkP7KQkJMuTISCSAQgE4An37x0OsY/Zij2lK/lSUjzYeUVlTZxIADZsQcBv/AFzj0uhmzM5g7iT5RNux0jVVPLQVAs4yJOJPFsIG1FpGmX0iUhZGLY5Mz4A7j4QdlWOlIUVhWDsSWBI3Jgau1k0i76kEgDshvedix0w3Qsk18gWIdXPMyYuYQxWpSiOKiT840jM5d5SlMzkltzl2jEZcfuczwhkq9nLt0soBTByzOQ+DQtiHQ2kVIp5QBISQ5d9Dh4GKwqgAyXs3vKj3ADlr6Rel7PIQ7pClDQqvOcGyIBjNdImLUwnEBsQHJzJfq8xF+hKpMshlHFySGL4BsTFUkDuV6qt6AJAUiUbuLJAJPBgTG3tCls61qfLM6PqflGbSQVqSrogo3RiQC2rRABMb3QBoGjrC0NlnzUBCHwLYxcNooTlePgIBUktPVfNnxMW+kSNRFdYVE2n2uS91GesDFzphyjabVuS0ay1LJDJhJSbCkbIppis1RImzgAbxxixKppqtWjZdnsCVKOEGMQNi/XViZIU6XwhHWpyTvMO1dasmXeQsOSMNYSFHEtGXM+Djxj0eMeiM1bOL9q9o84k2aqOjqELJa6Xd2yzx5Rpa/aPOJNmFgVMsqAKXxBybWNMv9QSHpGWnrVTZs5ZFzFBxOgbM8fnA8UMxfaqFrd8EhZGGbNhhyg2KlEyondGMAUDEEYYOz474MX5KB2yMGwww3OOZ8Yso3yM+AYKxQuJYh+qMBpdxZ+Og0gXOlKvqUJCO0TfUkOSTneLQzJtCSm6ESyXIGLkE4ZliwyxwgVaFpXiUdHkeWIwzzjml7hZQR0jpvKF0qAYEaneIPSJaASzYNiTji+D47hAdM2Y6RcupJAxGT6uWg3IslTkOSwGQGr78BlHJexyN/aEJHaHck+uUDJlcC4Dqc89cmDwb9gQkPMIA/EsB+4GBtRalLKQQZ6H3JYsN3VxfugtNc7BbIJU1ZICUF8Wdm0i/Lp6lQxmXBucjwygMvbWQhglKls/usCTvJIPlA+ft/O/dS0S+4E+QEKpQ9zmxrTZGC1KXMJS+LMCfidzAb9rU9NMInICgUnApC3ckMX/WMK9VtPVzcDNVyAGu45+cCZ61kkrUSrLEufGJ5MyXpQppNUCokBg5IG4PhHo0jeM2N8hZ4Q/GrR0dMgAXnBUwLZZk5PCCI6COh6CmIACyoPk+RGebRpxrYHcKUolhLrLHcPKJDWyQ5AKjmTifrGKKiQsXyw54xJV1VGgG/OQXzSAG/pAjSk6Be5QtC09AjMaDQwNM5eiGHGLVbtXRpDIQpRZnAbweF6o2owIRKGOqi/pCS25Z17jbTWeSxfMPFz2ZCR11AcyI5xO2jqFBgu6OAaB82pmL7SlHmTCa49kNZ0WotWmlg9dL7hA1e2EpPZSVNwhKRTqOhiYUJ1IELrm+ECxhqNt5p7CQmBFVtBUTM5hHKKwlSxmp+USyrpDpT4wW5NbsWwfMUSXJJPGNImqJjnIRCIxzjUqHXBsY9HjHoocEbX7R5x7Z8p9ol3g4KmPfhHrY7UD0qILgtFcjqdiQ9J0ipEpNRMCAGuIcBhqBpBinsxCGUbgDHtAKzwfraxyemrFyyShRSSGJEYnVS19palcyT6xeMo8hfFHUq2roJbX56FlOIyJB4BIzwgPau1dHdKZSJmJe8MPNR+UIaZSjkDFmVZcxXuwdfsgNhWdtTgBLkpDF3WoqPldipP2nqluOkug6JAGXFn84hFAlPbmoHBwT4BzGSZCdVr5Bh5n5RKSk+51lGdMWvtqUr4lE+sYRTKOQPh9YZ1WaE0/TJCAWvXS56umIIDto0AF18w+83wsn/LE3ij3DbMpsxTOeqN5LRkSJSe0sHlj6fWKilviS54xpejvJE6mEpNw9iWpXPD6xVq5z4FKQ276vECZh0fGLE6gmJliYQLpLZjOBKdp0jkinG+kapEbaRLGtrGZ6JETlAgglxkdzRHGU4EPiNW/WcVUqAWJ1dMX2lqPMmI0y1HIEwzWVSUyS890JuhSSfefgMou1ltUSEKTKllSmICtx3xo/ViipLs5Z0aJBQJHaWBESqq8DeUonQaRUJhZUgK2EPsU71QZl0CehMwADBxCq8WDXTLty8bu6E8RDKJmZWLOrcogUsnMxhMsnIExZl2ZNPuGEc2+EFIqvGUk5DWDFPs5MVnhBOm2cCCCXhU23TY2li3V0C5aQpQwOUVgIddqVI9nCdRlCUI6cUpg3PGPR4x6E7nBO2e1AwCClt9qBcWy+oWHBPQoClhKnL4BsS+kNtlUlGlJM9RQoFrhzPHAQp2cWmA6jER6tmFSySXMHFOonNKxqtm2qMSiimQq/gy2yxxz+kLM6feS6lrUrccQO8mKhjEGWanwdpN70YvRrHolrbGotzbTmqQJZWbg09BFTGDNhUaJj30v3n5QxU9KhPZQkch845xb5YyViWihmHJCvDPxi7JsCacwE84YjPV0iUvgdPzhslSEhLhIBYYxLLKOOtuSmPFqEOn2YyKiTyGHiWg9Vy0CimSlFtQS2d05+UWLcqFJQSCzcoSKuumTJJvqJ6/Ddwi8JOMbEnFJ0CkxnSNRG5yEJjdoRmIwDGYxAl2OJqmqUtrxdsBwiJ4ygYiGuyKCW46gPOHV+5yVitLkKVkknui7JsaarRucOtRLCR1QBAOnqFGaATg+UHShqor0+zR95XhBOn2dlj3X5wxy0hsoXtoaxaHuqI8IfSkGkiK00dCBcSl4H0lrXVPMUG3DGAdRVLX2lE84gicppbC2xxqNr0jCWj5QHq9oZ8zItyinZUoKWAoOIcpNFLSzIAgwxKrRzySewk1lTMW198N8VwIaNsZSQEsAIWBCyhUgGI9Ho9ARx/9k=;" vertex="1" parent="1">
          <mxGeometry x="302" y="1180" width="195.47" height="160" as="geometry" />
        </mxCell>
        <mxCell id="uWoTVwZIR8hNObK4jhSC-57" value="" style="edgeStyle=orthogonalEdgeStyle;rounded=0;orthogonalLoop=1;jettySize=auto;html=1;" edge="1" parent="1" source="uWoTVwZIR8hNObK4jhSC-54" target="uWoTVwZIR8hNObK4jhSC-56">
          <mxGeometry relative="1" as="geometry" />
        </mxCell>
        <mxCell id="uWoTVwZIR8hNObK4jhSC-59" value="" style="edgeStyle=orthogonalEdgeStyle;rounded=0;orthogonalLoop=1;jettySize=auto;html=1;" edge="1" parent="1" source="uWoTVwZIR8hNObK4jhSC-54" target="uWoTVwZIR8hNObK4jhSC-58">
          <mxGeometry relative="1" as="geometry" />
        </mxCell>
        <mxCell id="uWoTVwZIR8hNObK4jhSC-61" value="" style="edgeStyle=orthogonalEdgeStyle;rounded=0;orthogonalLoop=1;jettySize=auto;html=1;" edge="1" parent="1" source="uWoTVwZIR8hNObK4jhSC-54" target="uWoTVwZIR8hNObK4jhSC-60">
          <mxGeometry relative="1" as="geometry" />
        </mxCell>
        <mxCell id="uWoTVwZIR8hNObK4jhSC-54" value="Cloud" style="whiteSpace=wrap;html=1;fillColor=#1ba1e2;strokeColor=#006EAF;fontColor=#ffffff;rounded=1;" vertex="1" parent="1">
          <mxGeometry x="710" y="1283" width="120" height="60" as="geometry" />
        </mxCell>
        <mxCell id="uWoTVwZIR8hNObK4jhSC-56" value="Private" style="whiteSpace=wrap;html=1;fillColor=#1ba1e2;strokeColor=#006EAF;fontColor=#ffffff;rounded=1;" vertex="1" parent="1">
          <mxGeometry x="910" y="1230" width="120" height="60" as="geometry" />
        </mxCell>
        <mxCell id="uWoTVwZIR8hNObK4jhSC-58" value="Public" style="whiteSpace=wrap;html=1;fillColor=#1ba1e2;strokeColor=#006EAF;fontColor=#ffffff;rounded=1;" vertex="1" parent="1">
          <mxGeometry x="910" y="1320" width="120" height="60" as="geometry" />
        </mxCell>
        <mxCell id="uWoTVwZIR8hNObK4jhSC-63" value="" style="edgeStyle=orthogonalEdgeStyle;rounded=0;orthogonalLoop=1;jettySize=auto;html=1;" edge="1" parent="1" source="uWoTVwZIR8hNObK4jhSC-60" target="uWoTVwZIR8hNObK4jhSC-62">
          <mxGeometry relative="1" as="geometry" />
        </mxCell>
        <mxCell id="uWoTVwZIR8hNObK4jhSC-60" value="How To work on Cloud" style="whiteSpace=wrap;html=1;fillColor=#1ba1e2;strokeColor=#006EAF;fontColor=#ffffff;rounded=1;" vertex="1" parent="1">
          <mxGeometry x="710" y="1390" width="120" height="60" as="geometry" />
        </mxCell>
        <mxCell id="uWoTVwZIR8hNObK4jhSC-65" value="" style="edgeStyle=orthogonalEdgeStyle;rounded=0;orthogonalLoop=1;jettySize=auto;html=1;" edge="1" parent="1" source="uWoTVwZIR8hNObK4jhSC-62" target="uWoTVwZIR8hNObK4jhSC-64">
          <mxGeometry relative="1" as="geometry" />
        </mxCell>
        <mxCell id="uWoTVwZIR8hNObK4jhSC-62" value="Deployment" style="whiteSpace=wrap;html=1;fillColor=#1ba1e2;strokeColor=#006EAF;fontColor=#ffffff;rounded=1;" vertex="1" parent="1">
          <mxGeometry x="900" y="1430" width="120" height="60" as="geometry" />
        </mxCell>
        <mxCell id="uWoTVwZIR8hNObK4jhSC-64" value="Monitor / TS" style="whiteSpace=wrap;html=1;fillColor=#1ba1e2;strokeColor=#006EAF;fontColor=#ffffff;rounded=1;" vertex="1" parent="1">
          <mxGeometry x="910" y="1530" width="120" height="60" as="geometry" />
        </mxCell>
      </root>
    </mxGraphModel>
  </diagram>
</mxfile>
